<svg width="3081" height="785" viewBox="0 0 3081 785" fill="none" xmlns="http://www.w3.org/2000/svg">
<path d="M430.41 604H155.605C148.574 604 140.957 603.219 132.754 601.656C124.746 599.898 116.738 597.262 108.73 593.746C100.918 590.23 93.3984 585.738 86.1719 580.27C78.9453 574.605 72.5 567.867 66.8359 560.055C61.3672 552.047 56.9727 542.867 53.6523 532.516C50.332 521.969 48.6719 510.152 48.6719 497.066V290.816C48.6719 283.785 49.4531 276.266 51.0156 268.258C52.7734 260.055 55.4102 252.047 58.9258 244.234C62.4414 236.227 67.0312 228.609 72.6953 221.383C78.3594 214.156 85.0977 207.809 92.9102 202.34C100.918 196.676 110.098 192.184 120.449 188.863C130.801 185.543 142.52 183.883 155.605 183.883H430.41V260.055H155.605C145.645 260.055 138.027 262.691 132.754 267.965C127.48 273.238 124.844 281.051 124.844 291.402V497.066C124.844 506.832 127.48 514.449 132.754 519.918C138.223 525.191 145.84 527.828 155.605 527.828H430.41V604ZM769.375 363.473H597.988C587.637 363.473 579.824 366.109 574.551 371.383C569.277 376.461 566.641 383.98 566.641 393.941V604H490.469V393.941C490.469 380.855 492.129 369.137 495.449 358.785C498.77 348.434 503.164 339.352 508.633 331.539C514.297 323.531 520.742 316.793 527.969 311.324C535.195 305.66 542.715 301.07 550.527 297.555C558.535 294.039 566.543 291.5 574.551 289.938C582.754 288.18 590.371 287.301 597.402 287.301H769.375V363.473ZM1163.12 497.066C1163.12 510.152 1161.46 521.969 1158.14 532.516C1154.82 542.867 1150.43 552.047 1144.96 560.055C1139.49 567.867 1133.14 574.605 1125.92 580.27C1118.69 585.738 1111.07 590.23 1103.07 593.746C1095.25 597.262 1087.25 599.898 1079.04 601.656C1071.04 603.219 1063.42 604 1056.19 604H918.789C908.242 604 896.719 602.145 884.219 598.434C871.719 594.723 860.098 588.668 849.355 580.27C838.809 571.676 829.922 560.641 822.695 547.164C815.664 533.492 812.148 516.793 812.148 497.066V393.941C812.148 374.41 815.664 357.906 822.695 344.43C829.922 330.758 838.809 319.723 849.355 311.324C860.098 302.73 871.719 296.578 884.219 292.867C896.719 289.156 908.242 287.301 918.789 287.301H1056.19C1075.72 287.301 1092.32 290.816 1106 297.848C1119.67 304.879 1130.7 313.766 1139.1 324.508C1147.5 335.055 1153.55 346.578 1157.27 359.078C1161.17 371.578 1163.12 383.199 1163.12 393.941V497.066ZM1086.95 394.527C1086.95 383.98 1084.32 376.168 1079.04 371.09C1073.77 366.012 1066.15 363.473 1056.19 363.473H919.375C909.219 363.473 901.504 366.109 896.23 371.383C890.957 376.461 888.32 383.98 888.32 393.941V497.066C888.32 507.027 890.957 514.645 896.23 519.918C901.504 525.191 909.219 527.828 919.375 527.828H1056.19C1066.54 527.828 1074.26 525.191 1079.34 519.918C1084.41 514.645 1086.95 507.027 1086.95 497.066V394.527ZM1534.9 604H1328.36C1317.81 604 1306.29 602.145 1293.79 598.434C1281.29 594.723 1269.67 588.668 1258.93 580.27C1248.38 571.676 1239.49 560.641 1232.27 547.164C1225.23 533.492 1221.72 516.793 1221.72 497.066V393.941C1221.72 386.715 1222.5 379.098 1224.06 371.09C1225.82 363.082 1228.46 355.172 1231.97 347.359C1235.49 339.352 1239.98 331.734 1245.45 324.508C1251.11 317.281 1257.85 310.934 1265.66 305.465C1273.67 299.996 1282.85 295.602 1293.2 292.281C1303.55 288.961 1315.27 287.301 1328.36 287.301H1534.9V363.473H1328.36C1318.4 363.473 1310.78 366.012 1305.51 371.09C1300.43 376.168 1297.89 383.98 1297.89 394.527V497.066C1297.89 507.027 1300.53 514.645 1305.8 519.918C1311.07 525.191 1318.79 527.828 1328.95 527.828H1534.9V604ZM1940.08 497.066C1940.08 510.152 1938.42 521.969 1935.1 532.516C1931.78 542.867 1927.38 552.047 1921.91 560.055C1916.45 567.867 1910.1 574.605 1902.87 580.27C1895.64 585.738 1888.03 590.23 1880.02 593.746C1872.21 597.262 1864.2 599.898 1856 601.656C1847.99 603.219 1840.37 604 1833.14 604H1695.74C1685.2 604 1673.67 602.145 1661.17 598.434C1648.67 594.723 1637.05 588.668 1626.31 580.27C1615.76 571.676 1606.88 560.641 1599.65 547.164C1592.62 533.492 1589.1 516.793 1589.1 497.066V393.941C1589.1 374.41 1592.62 357.906 1599.65 344.43C1606.88 330.758 1615.76 319.723 1626.31 311.324C1637.05 302.73 1648.67 296.578 1661.17 292.867C1673.67 289.156 1685.2 287.301 1695.74 287.301H1833.14C1852.68 287.301 1869.28 290.816 1882.95 297.848C1896.62 304.879 1907.66 313.766 1916.05 324.508C1924.45 335.055 1930.51 346.578 1934.22 359.078C1938.12 371.578 1940.08 383.199 1940.08 393.941V497.066ZM1863.91 394.527C1863.91 383.98 1861.27 376.168 1856 371.09C1850.72 366.012 1843.11 363.473 1833.14 363.473H1696.33C1686.17 363.473 1678.46 366.109 1673.18 371.383C1667.91 376.461 1665.27 383.98 1665.27 393.941V497.066C1665.27 507.027 1667.91 514.645 1673.18 519.918C1678.46 525.191 1686.17 527.828 1696.33 527.828H1833.14C1843.5 527.828 1851.21 525.191 1856.29 519.918C1861.37 514.645 1863.91 507.027 1863.91 497.066V394.527ZM2432.85 428.219C2432.85 453.805 2428.36 477.34 2419.38 498.824C2410.59 520.309 2398.38 538.863 2382.75 554.488C2367.13 569.918 2348.57 582.027 2327.09 590.816C2305.61 599.605 2282.27 604 2257.07 604H2051.41C2045.94 604 2040.86 603.023 2036.17 601.07C2031.48 599.117 2027.38 596.48 2023.87 593.16C2020.55 589.645 2017.91 585.543 2015.96 580.855C2014 576.168 2013.03 571.09 2013.03 565.621V222.262C2013.03 216.988 2014 212.008 2015.96 207.32C2017.91 202.633 2020.55 198.531 2023.87 195.016C2027.38 191.5 2031.48 188.766 2036.17 186.812C2040.86 184.859 2045.94 183.883 2051.41 183.883H2257.07C2282.27 183.883 2305.61 188.277 2327.09 197.066C2348.57 205.855 2367.13 218.063 2382.75 233.688C2398.38 249.117 2410.59 267.672 2419.38 289.352C2428.36 310.836 2432.85 334.273 2432.85 359.664V428.219ZM2356.68 359.664C2356.68 344.82 2354.24 331.246 2349.36 318.941C2344.67 306.637 2337.93 296.188 2329.14 287.594C2320.35 278.805 2309.8 272.066 2297.5 267.379C2285.39 262.496 2271.91 260.055 2257.07 260.055H2089.2V527.828H2257.07C2271.91 527.828 2285.39 525.484 2297.5 520.797C2309.8 515.914 2320.35 509.176 2329.14 500.582C2337.93 491.793 2344.67 481.344 2349.36 469.234C2354.24 456.93 2356.68 443.258 2356.68 428.219V359.664ZM2584.32 604H2508.14V183.883H2584.32V604ZM3059.22 604H2711.76C2706.29 604 2701.21 603.023 2696.52 601.07C2691.84 599.117 2687.73 596.48 2684.22 593.16C2680.9 589.645 2678.26 585.543 2676.31 580.855C2674.36 576.168 2673.38 571.09 2673.38 565.621V183.883H2749.55V527.828H3059.22V604Z" fill="white"/>
</svg>
